<?xml version="1.0" standalone="no"?>
<!DOCTYPE svg PUBLIC "-//W3C//DTD SVG 20010904//EN"
 "http://www.w3.org/TR/2001/REC-SVG-20010904/DTD/svg10.dtd">
<svg version="1.0" xmlns="http://www.w3.org/2000/svg"
 width="700.000000pt" height="700.000000pt" viewBox="0 0 700.000000 700.000000"
 preserveAspectRatio="xMidYMid meet">
<metadata>
Created by potrace 1.14, written by Peter Selinger 2001-2017
</metadata>
<g transform="translate(0.000000,700.000000) scale(0.100000,-0.100000)"
fill="#000000" stroke="none">
<path d="M0 3500 l0 -3500 3500 0 3500 0 0 3500 0 3500 -3500 0 -3500 0 0
-3500z m2210 1726 c264 -53 469 -152 636 -308 147 -138 240 -319 279 -542 8
-49 15 -99 15 -112 l0 -24 -449 0 -448 0 -7 46 c-20 146 -139 262 -304 294
-177 35 -345 -33 -403 -162 -18 -41 -23 -71 -23 -133 0 -197 111 -280 604
-450 537 -184 731 -289 889 -478 127 -152 171 -275 178 -502 4 -124 1 -167
-15 -245 -43 -212 -158 -405 -325 -548 -260 -224 -660 -326 -1098 -281 -536
54 -931 319 -1065 713 -29 85 -54 212 -54 277 l0 49 438 0 438 0 13 -62 c7
-35 24 -86 37 -115 72 -151 251 -230 458 -203 142 20 233 76 282 177 23 46 28
69 28 132 -1 92 -23 150 -81 208 -97 97 -199 146 -533 253 -506 162 -687 253
-848 426 -173 185 -230 354 -219 656 4 126 10 169 31 243 112 373 439 622 921
700 125 20 507 14 625 -9z m3323 -44 c345 -65 592 -230 712 -477 65 -135 79
-203 79 -380 0 -174 -14 -244 -74 -370 -83 -173 -266 -334 -440 -386 -22 -7
-40 -15 -40 -19 0 -3 23 -12 52 -19 79 -21 216 -94 286 -153 127 -108 229
-270 273 -433 31 -115 31 -324 0 -450 -89 -364 -376 -598 -826 -673 -88 -14
-206 -16 -980 -17 l-880 0 -3 1690 c-1 930 0 1696 3 1703 4 11 158 13 867 9
817 -4 869 -5 971 -25z"/>
<path d="M4520 4185 l0 -355 308 0 c180 0 333 5 368 11 128 24 226 97 266 199
28 73 30 203 4 277 -35 103 -138 185 -264 212 -33 7 -174 11 -367 11 l-315 0
0 -355z"/>
<path d="M4520 2845 l0 -375 323 0 c452 0 525 14 628 119 73 75 94 132 93 256
-1 141 -44 228 -149 300 -100 69 -142 75 -542 75 l-353 0 0 -375z"/>
</g>
</svg>
