<svg width="260" height="260" viewBox="0 0 260 260" fill="none" xmlns="http://www.w3.org/2000/svg">
<rect width="260" height="260" fill="#171718"/>
<path d="M72.1827 194.26C62.9427 194.26 54.6627 192.76 47.3427 189.76C40.0227 186.76 34.1427 182.32 29.7027 176.44C25.3827 170.56 23.1027 163.48 22.8627 155.2H55.6227C56.1027 159.88 57.7227 163.48 60.4827 166C63.2427 168.4 66.8427 169.6 71.2827 169.6C75.8427 169.6 79.4427 168.58 82.0827 166.54C84.7227 164.38 86.0427 161.44 86.0427 157.72C86.0427 154.6 84.9627 152.02 82.8027 149.98C80.7627 147.94 78.1827 146.26 75.0627 144.94C72.0627 143.62 67.7427 142.12 62.1027 140.44C53.9427 137.92 47.2827 135.4 42.1227 132.88C36.9627 130.36 32.5227 126.64 28.8027 121.72C25.0827 116.8 23.2227 110.38 23.2227 102.46C23.2227 90.7 27.4827 81.52 36.0027 74.92C44.5227 68.2 55.6227 64.84 69.3027 64.84C83.2227 64.84 94.4427 68.2 102.963 74.92C111.483 81.52 116.043 90.76 116.643 102.64H83.3427C83.1027 98.56 81.6027 95.38 78.8427 93.1C76.0827 90.7 72.5427 89.5 68.2227 89.5C64.5027 89.5 61.5027 90.52 59.2227 92.56C56.9427 94.48 55.8027 97.3 55.8027 101.02C55.8027 105.1 57.7227 108.28 61.5627 110.56C65.4027 112.84 71.4027 115.3 79.5627 117.94C87.7227 120.7 94.3227 123.34 99.3627 125.86C104.523 128.38 108.963 132.04 112.683 136.84C116.403 141.64 118.263 147.82 118.263 155.38C118.263 162.58 116.403 169.12 112.683 175C109.083 180.88 103.803 185.56 96.8427 189.04C89.8827 192.52 81.6627 194.26 72.1827 194.26ZM213.705 128.2C221.025 129.76 226.905 133.42 231.345 139.18C235.785 144.82 238.005 151.3 238.005 158.62C238.005 169.18 234.285 177.58 226.845 183.82C219.525 189.94 209.265 193 196.065 193H137.205V66.64H194.085C206.925 66.64 216.945 69.58 224.145 75.46C231.465 81.34 235.125 89.32 235.125 99.4C235.125 106.84 233.145 113.02 229.185 117.94C225.345 122.86 220.185 126.28 213.705 128.2ZM167.985 117.76H188.145C193.185 117.76 197.025 116.68 199.665 114.52C202.425 112.24 203.805 108.94 203.805 104.62C203.805 100.3 202.425 97 199.665 94.72C197.025 92.44 193.185 91.3 188.145 91.3H167.985V117.76ZM190.665 168.16C195.825 168.16 199.785 167.02 202.545 164.74C205.425 162.34 206.865 158.92 206.865 154.48C206.865 150.04 205.365 146.56 202.365 144.04C199.485 141.52 195.465 140.26 190.305 140.26H167.985V168.16H190.665Z" fill="white"/>
</svg>
